<svg width="36" height="36" viewBox="0 0 36 36" fill="none" xmlns="http://www.w3.org/2000/svg">
<path d="M4.29609 15.75C3.16406 15.75 2.25 14.8359 2.25 13.7039C2.25 13.5703 2.26406 13.4438 2.29219 13.3102C2.66484 11.8336 5.54063 2.25 18 2.25C30.4594 2.25 33.3352 11.8336 33.7078 13.3102C33.743 13.4438 33.75 13.5703 33.75 13.7039C33.75 14.8359 32.8359 15.75 31.7039 15.75H4.29609ZM10.125 9C10.125 8.70163 10.0065 8.41548 9.7955 8.2045C9.58452 7.99353 9.29837 7.875 9 7.875C8.70163 7.875 8.41548 7.99353 8.2045 8.2045C7.99353 8.41548 7.875 8.70163 7.875 9C7.875 9.29837 7.99353 9.58452 8.2045 9.7955C8.41548 10.0065 8.70163 10.125 9 10.125C9.29837 10.125 9.58452 10.0065 9.7955 9.7955C10.0065 9.58452 10.125 9.29837 10.125 9ZM27 10.125C27.2984 10.125 27.5845 10.0065 27.7955 9.7955C28.0065 9.58452 28.125 9.29837 28.125 9C28.125 8.70163 28.0065 8.41548 27.7955 8.2045C27.5845 7.99353 27.2984 7.875 27 7.875C26.7016 7.875 26.4155 7.99353 26.2045 8.2045C25.9935 8.41548 25.875 8.70163 25.875 9C25.875 9.29837 25.9935 9.58452 26.2045 9.7955C26.4155 10.0065 26.7016 10.125 27 10.125ZM19.125 6.75C19.125 6.45163 19.0065 6.16548 18.7955 5.9545C18.5845 5.74353 18.2984 5.625 18 5.625C17.7016 5.625 17.4155 5.74353 17.2045 5.9545C16.9935 6.16548 16.875 6.45163 16.875 6.75C16.875 7.04837 16.9935 7.33452 17.2045 7.5455C17.4155 7.75647 17.7016 7.875 18 7.875C18.2984 7.875 18.5845 7.75647 18.7955 7.5455C19.0065 7.33452 19.125 7.04837 19.125 6.75ZM1.125 21.375C1.125 19.5117 2.63672 18 4.5 18H31.5C33.3633 18 34.875 19.5117 34.875 21.375C34.875 23.2383 33.3633 24.75 31.5 24.75H4.5C2.63672 24.75 1.125 23.2383 1.125 21.375ZM2.25 28.125C2.25 27.5063 2.75625 27 3.375 27H32.625C33.2438 27 33.75 27.5063 33.75 28.125V29.25C33.75 31.732 31.732 33.75 29.25 33.75H6.75C4.26797 33.75 2.25 31.732 2.25 29.25V28.125Z" fill="#636363"/>
</svg>
