<svg width="14" height="14" viewBox="0 0 14 14" fill="none" xmlns="http://www.w3.org/2000/svg">
<path d="M9.94585 11.83C9.37418 12.3842 8.75001 12.2967 8.14918 12.0342C7.51335 11.7658 6.93001 11.7542 6.25918 12.0342C5.41918 12.3958 4.97585 12.2908 4.47418 11.83C1.62751 8.89583 2.04751 4.4275 5.27918 4.26417C6.06668 4.305 6.61501 4.69583 7.07585 4.73083C7.76418 4.59083 8.42335 4.18833 9.15835 4.24083C10.0392 4.31083 10.7042 4.66083 11.1417 5.29083C9.32168 6.38167 9.75335 8.77917 11.4217 9.45C11.0892 10.325 10.6575 11.1942 9.94001 11.8358L9.94585 11.83ZM7.01751 4.22917C6.93001 2.92833 7.98585 1.855 9.19918 1.75C9.36835 3.255 7.83418 4.375 7.01751 4.22917Z" fill="#636363"/>
</svg>
