<svg width="14" height="5" viewBox="0 0 14 5" fill="none"
    xmlns="http://www.w3.org/2000/svg">
    <g clip-path="url(#clip0_119_33)">
        <path d="M0.53125 -0.183594L2.36719 -0.183594L3.75781 2.12109L4.85156 0.246094V2.85547L3.60547 5L0.53125 -0.183594ZM5.10547 5V-0.183594L6.83203 -0.183594V5H5.10547ZM0.527344 5L0.527344 0.296875L2.14062 3.00391L2.14063 5H0.527344ZM10.0078 2.96094H10.832L10.75 3.88672H9.92188L9.82422 5H8.89844L8.99609 3.88672H8.01562L8.09375 2.96094H9.07031L9.16797 1.85547H8.19531L8.27734 0.929687L9.25 0.929687L9.34766 -0.183594L10.2734 -0.183594L10.1797 0.929687L11.0156 0.929687L10.9297 1.85547H10.0938L10.0078 2.96094ZM11.3789 -0.183594L12.3086 -0.183594L12.2109 0.929687L13.1992 0.929687L13.1133 1.85547H12.1328L12.0391 2.96094H13.0195L12.9336 3.88672L11.9531 3.88672L11.8555 5H10.9297L11.3789 -0.183594Z" fill="#636363"/>
    </g>
</svg>
